# xmcd
#
# Track frame offsets:
#  150
#  14857
#  28425
#  49279
#  65497
#  73934
#  87327
#  102138
#  124491
#  143751
#  163140
#  177667
#  200649
#  213080
#  225515
#  241345
#  262345
#  283015
#  300758
#  312175
#
# Disc length: 4364 seconds
#
# Revision: 0
# Processed by: cddbd v1.5.1PL2 Copyright (c) Steve Scherf et al.
# Submitted via: Collectorz.com_Music_Collector 6.11
#
DISCID=37110a14
DTITLE=Juice Leskinen - Kautta aikain 2 (2CD) [CD1)
DYEAR=2006
DGENRE=Suomalainen rock
TTITLE0=Dokumentti
TTITLE1=Laulu vain
TTITLE2=Klovni heittää veivin
TTITLE3=Manserock
TTITLE4=Rokkaan
TTITLE5=Se oli jautaa
TTITLE6=Outoon valoon
TTITLE7=Tanssimaa
TTITLE8=Syvänmerensukeltaja
TTITLE9=Keskitysleirin ruokavalio
TTITLE10=Ekumeeninen jenkka
TTITLE11=Matteus, Markus, Luukas ja mä
TTITLE12=Hauho
TTITLE13=Saimaata näkyvyssä
TTITLE14=Kultuuri saapui Ähtäriin
TTITLE15=Lahti
TTITLE16=Olipa kerran
TTITLE17=Puhelinpylvään henkinen elämä
TTITLE18=Napoleonin mopo
TTITLE19=Sika
EXTD=
EXTT0=
EXTT1=
EXTT2=
EXTT3=
EXTT4=
EXTT5=
EXTT6=
EXTT7=
EXTT8=
EXTT9=
EXTT10=
EXTT11=
EXTT12=
EXTT13=
EXTT14=
EXTT15=
EXTT16=
EXTT17=
EXTT18=
EXTT19=
PLAYORDER=
